{"title":"RANGREZZ 2013 Untouched Scam (ICTV) - Hindi","uid":8287767,"size":745904128,"categoryP":"video","categoryS":"movies","magnet":"?xt=urn:btih:36b552aef227632d3832ce79c22ba72c763ff480&amp;dn=RANGREZZ+2013+Untouched+Scam+%28ICTV%29+-+Hindi&amp;tr=udp%3A%2F%2Ftracker.openbittorrent.com%3A80&amp;tr=udp%3A%2F%2Fopen.demonii.com%3A1337&amp;tr=udp%3A%2F%2Ftracker.coppersurfer.tk%3A6969&amp;tr=udp%3A%2F%2Fexodus.desync.com%3A6969","seeders":1,"leechers":0,"uploader":"SJonam","files":7,"time":1363975561,"description":" &lt;a href=&quot;http://desibbrg.org/images/66952052392581364616.gif&quot; rel=&quot;nofollow&quot; target=&quot;_NEW&quot;&gt;http://desibbrg.org/images/66952052392581364616.gif&lt;/a&gt; &lt;a href=&quot;\nhttp://desibbrg.org/images/93439239511057607478.jpg&quot; rel=&quot;nofollow&quot; target=&quot;_NEW&quot;&gt;\nhttp://desibbrg.org/images/93439239511057607478.jpg&lt;/a&gt;\n\nMedia Info - \nVideo\nID : 224 (0xE0)\nFormat : MPEG Video\nFormat version : Version 2\nFormat profile : Main@Main\nFormat settings, BVOP : Yes\nFormat settings, Matrix : Default\nDuration : 2h 0mn\nBit rate mode : Variable\nBit rate : 683 Kbps\nMaximum bit rate : 9 672 Kbps\nWidth : 352 pixels\nHeight : 288 pixels\nDisplay aspect ratio : 4:3\nFrame rate : 25.000 fps\nStandard : PAL\nColor space : YUV\nChroma subsampling : 4:2:0\nBit depth : 8 bits\nScan type : Progressive\nCompression mode : Lossy\nBits/(Pixel*Frame) : 0.270\nStream size : 587 MiB (83%)\n\nAudio\nID : 192 (0xC0)\nFormat : MPEG Audio\nFormat version : Version 1\nFormat profile : Layer 2\nDuration : 2h 0mn\nBit rate mode : Constant\nBit rate : 128 Kbps\nChannel(s) : 2 channels\nSampling rate : 48.0 KHz\nCompression mode : Lossy\nStream size : 110 MiB (15%)\n\nRipper : Master Mind\n\nSeeding 24x7... Extreme Seeding...\n\n\nEnjoy!\n","torrent":{"xt":"urn:btih:36b552aef227632d3832ce79c22ba72c763ff480","amp;dn":"RANGREZZ+2013+Untouched+Scam+%28ICTV%29+-+Hindi","amp;tr":["udp%3A%2F%2Ftracker.openbittorrent.com%3A80","udp%3A%2F%2Fopen.demonii.com%3A1337","udp%3A%2F%2Ftracker.coppersurfer.tk%3A6969","udp%3A%2F%2Fexodus.desync.com%3A6969"],"infoHash":"36b552aef227632d3832ce79c22ba72c763ff480","infoHashBuffer":{"type":"Buffer","data":[54,181,82,174,242,39,99,45,56,50,206,121,194,43,167,44,118,63,244,128]},"announce":[],"urlList":[]}}